<?xml version="1.0" standalone="no"?>
<!DOCTYPE svg PUBLIC "-//W3C//DTD SVG 20010904//EN"
 "http://www.w3.org/TR/2001/REC-SVG-20010904/DTD/svg10.dtd">
<svg version="1.0" xmlns="http://www.w3.org/2000/svg"
 width="800.000000pt" height="800.000000pt" viewBox="0 0 800.000000 800.000000"
 preserveAspectRatio="xMidYMid meet">
<metadata>
Created by potrace 1.11, written by Peter Selinger 2001-2013
</metadata>
<g transform="translate(0.000000,800.000000) scale(0.100000,-0.100000)"
fill="#000000" stroke="none">
<path d="M3695 7789 c-33 -4 -91 -10 -128 -13 -38 -3 -72 -8 -75 -10 -4 -2
-32 -7 -62 -10 -75 -9 -169 -25 -205 -36 -16 -5 -43 -11 -60 -14 -38 -6 -59
-11 -115 -26 -25 -7 -52 -14 -60 -15 -8 -2 -16 -4 -17 -5 -2 -2 -7 -4 -13 -5
-5 -1 -13 -4 -17 -5 -5 -1 -12 -2 -17 -1 -4 1 -14 -4 -22 -10 -8 -6 -14 -9
-14 -6 0 3 -24 -4 -52 -14 -29 -11 -62 -22 -72 -24 -31 -7 -160 -57 -173 -68
-7 -5 -13 -7 -13 -4 0 16 -376 -170 -510 -252 -58 -35 -117 -70 -131 -78 -15
-7 -32 -20 -39 -28 -7 -8 -17 -15 -22 -15 -5 0 -16 -6 -23 -12 -33 -30 -45
-38 -55 -38 -5 0 -10 -4 -10 -10 0 -5 -5 -10 -10 -10 -9 0 -96 -65 -185 -137
-121 -99 -383 -355 -460 -449 -16 -20 -39 -46 -50 -58 -44 -45 -255 -333 -255
-347 0 -5 -4 -9 -10 -9 -5 0 -10 -5 -10 -11 0 -6 -13 -30 -30 -54 -16 -24 -30
-48 -30 -53 0 -6 -4 -12 -8 -14 -14 -6 -112 -186 -111 -205 1 -3 -4 -9 -9 -12
-13 -8 -116 -228 -157 -336 -13 -33 -28 -71 -33 -85 -5 -14 -10 -27 -11 -30 0
-3 -12 -39 -27 -80 -30 -88 -29 -85 -39 -128 -4 -18 -12 -35 -16 -38 -5 -3 -7
-9 -4 -13 2 -5 0 -23 -6 -42 -12 -40 -13 -44 -34 -134 -16 -70 -18 -78 -29
-145 -3 -19 -10 -58 -15 -87 -6 -29 -13 -81 -17 -115 -3 -35 -8 -65 -10 -68
-24 -43 -23 -820 1 -860 2 -3 6 -32 9 -65 6 -61 11 -92 23 -155 3 -19 7 -42 9
-50 2 -8 6 -31 10 -50 4 -19 8 -40 10 -47 15 -73 50 -216 57 -233 4 -8 8 -24
10 -35 2 -11 7 -27 10 -35 3 -8 11 -33 17 -55 6 -22 15 -49 20 -60 4 -11 23
-60 40 -110 42 -117 131 -318 145 -327 5 -4 7 -8 3 -8 -9 0 50 -114 140 -270
41 -71 150 -237 167 -253 8 -9 15 -18 15 -21 0 -7 49 -79 59 -86 4 -3 20 -23
36 -45 17 -22 32 -42 35 -45 3 -3 27 -32 55 -65 154 -186 482 -500 584 -559 9
-6 27 -20 41 -33 14 -13 30 -23 37 -23 7 0 13 -4 13 -9 0 -9 227 -162 300
-202 25 -13 47 -27 50 -30 3 -4 15 -9 27 -13 13 -4 29 -13 36 -19 20 -19 347
-177 366 -177 4 0 27 -10 51 -21 24 -12 49 -22 54 -23 6 -1 17 -5 24 -9 7 -5
25 -11 39 -13 15 -3 41 -11 58 -19 45 -21 313 -97 385 -110 27 -5 42 -9 80
-18 29 -8 95 -18 128 -21 12 0 22 -3 22 -6 0 -3 15 -5 33 -4 17 0 36 -2 42 -5
11 -6 59 -11 127 -14 27 -1 48 -4 48 -7 0 -7 148 -13 365 -13 221 -1 397 10
495 29 14 3 32 5 40 6 8 0 38 3 65 8 28 5 68 12 90 15 44 7 69 12 73 15 3 3
10 5 67 15 53 9 64 11 68 15 1 1 9 3 17 5 81 17 313 90 430 135 30 12 60 23
65 24 27 8 212 91 270 122 17 9 73 39 125 66 52 28 107 59 122 69 14 11 29 19
32 19 24 0 436 298 497 359 9 9 36 32 60 53 60 49 242 230 306 304 28 32 64
73 78 89 105 119 384 523 378 546 -2 5 1 9 6 9 5 0 17 18 27 40 10 22 21 40
26 40 4 0 8 4 8 9 0 6 29 69 64 140 35 72 62 131 58 131 -3 0 3 9 13 20 10 11
15 20 11 20 -3 0 1 15 11 33 9 17 18 41 20 51 2 11 7 24 12 30 14 19 100 281
132 403 27 102 34 135 43 188 1 6 4 15 7 20 4 6 5 20 4 33 -1 12 1 22 5 22 4
0 7 12 8 28 1 15 4 38 7 52 3 14 8 38 10 54 2 16 7 31 10 34 2 3 0 11 -6 19
-6 7 -8 13 -3 13 5 0 10 15 11 33 4 43 7 60 16 75 5 7 3 12 -3 12 -6 0 -8 5
-5 10 17 27 25 497 11 665 -14 176 -21 228 -31 245 -6 9 -4 11 5 5 10 -6 11
-4 4 6 -4 8 -10 23 -11 34 -1 11 -5 36 -8 55 -3 19 -8 49 -10 65 -2 17 -4 30
-5 30 -1 0 -3 10 -6 23 -2 12 -6 32 -8 45 -3 12 -5 22 -6 22 -2 0 -9 34 -14
65 -8 49 -110 385 -136 448 -6 12 -14 32 -19 45 -55 143 -141 331 -152 335 -5
2 -9 9 -9 17 0 7 -25 56 -55 110 -30 53 -55 101 -55 106 0 5 -4 9 -10 9 -5 0
-10 5 -10 10 0 6 -22 44 -50 85 -27 41 -50 79 -50 85 0 5 -3 10 -7 10 -5 0
-27 28 -50 63 -23 34 -50 71 -60 82 -10 11 -30 38 -45 60 -15 22 -45 59 -65
82 -21 23 -58 65 -83 94 -70 79 -248 257 -325 324 -38 33 -80 70 -93 83 -12
12 -27 22 -32 22 -4 0 -10 4 -12 8 -1 4 -50 43 -108 86 -58 42 -113 84 -123
92 -9 8 -19 14 -21 14 -3 0 -37 22 -78 48 -110 72 -464 268 -476 263 -1 -1
-19 6 -40 15 -117 51 -176 74 -188 74 -7 0 -14 3 -16 8 -3 6 -166 64 -196 68
-8 2 -21 6 -30 10 -9 4 -21 8 -27 10 -20 6 -131 35 -154 40 -14 3 -28 7 -32 9
-4 3 -24 7 -45 10 -22 3 -46 8 -54 11 -8 3 -37 10 -65 14 -27 5 -59 11 -70 13
-11 3 -40 8 -65 11 -25 3 -56 8 -70 11 -13 3 -52 7 -86 11 -33 3 -74 8 -90 10
-50 8 -586 11 -649 3z"/>
</g>
</svg>
