<?xml version="1.0" standalone="no"?>
<!DOCTYPE svg PUBLIC "-//W3C//DTD SVG 20010904//EN"
 "http://www.w3.org/TR/2001/REC-SVG-20010904/DTD/svg10.dtd">
<svg version="1.0" xmlns="http://www.w3.org/2000/svg"
 width="630.000000pt" height="630.000000pt" viewBox="0 0 630.000000 630.000000"
 preserveAspectRatio="xMidYMid meet">
<metadata>
Created by potrace 1.14, written by Peter Selinger 2001-2017
</metadata>
<g transform="translate(0.000000,630.000000) scale(0.100000,-0.100000)"
fill="#000000" stroke="none">
<path d="M2875 6294 c-432 -45 -789 -149 -1155 -335 -260 -132 -489 -291 -700
-487 -289 -268 -507 -553 -678 -889 -164 -324 -263 -637 -319 -1008 -26 -172
-26 -678 0 -850 91 -607 326 -1138 707 -1596 148 -179 393 -406 588 -546 192
-137 470 -287 699 -377 202 -79 479 -150 713 -183 178 -25 662 -25 840 0 918
130 1718 637 2222 1407 252 385 419 833 485 1300 25 178 25 662 0 840 -67 476
-240 932 -498 1320 -148 222 -271 366 -480 566 -387 370 -925 653 -1469 774
-222 50 -342 62 -635 65 -154 2 -298 1 -320 -1z m-97 -2309 l359 -720 361 721
360 722 756 -1515 c416 -833 756 -1519 756 -1524 0 -5 -27 -22 -60 -39 l-61
-31 -361 731 -361 730 -639 0 c-420 0 -638 -3 -638 -10 0 -6 153 -316 340
-690 187 -374 340 -684 340 -690 0 -5 -27 -23 -60 -40 l-59 -30 -332 670
c-183 369 -336 670 -341 670 -5 0 -158 -301 -340 -669 l-331 -670 -61 31 c-34
17 -62 32 -64 33 -2 2 152 314 342 694 190 380 346 693 346 696 0 3 -288 5
-640 5 l-639 0 -363 -729 -363 -730 -63 32 -63 33 758 1520 c417 836 759 1520
760 1519 1 0 164 -325 361 -720z"/>
<path d="M2122 3805 c-160 -322 -292 -590 -292 -595 0 -7 204 -10 590 -10 325
0 590 2 590 5 0 7 -589 1185 -593 1185 -1 0 -134 -263 -295 -585z"/>
<path d="M3562 3805 c-160 -322 -292 -590 -292 -595 0 -7 204 -10 590 -10 325
0 590 2 590 5 0 7 -589 1185 -593 1185 -1 0 -134 -263 -295 -585z"/>
</g>
</svg>
