<?xml version="1.0" standalone="no"?>
<!DOCTYPE svg PUBLIC "-//W3C//DTD SVG 20010904//EN"
 "http://www.w3.org/TR/2001/REC-SVG-20010904/DTD/svg10.dtd">
<svg version="1.0" xmlns="http://www.w3.org/2000/svg"
 width="630.000000pt" height="630.000000pt" viewBox="0 0 630.000000 630.000000"
 preserveAspectRatio="xMidYMid meet">
<metadata>
Created by potrace 1.11, written by Peter Selinger 2001-2013
</metadata>
<g transform="translate(0.000000,630.000000) scale(0.100000,-0.100000)"
fill="#000000" stroke="none">
<path d="M2918 6295 c-1 -1 -37 -5 -78 -9 -41 -3 -84 -8 -95 -10 -11 -2 -40
-7 -65 -10 -114 -16 -325 -62 -432 -95 -392 -121 -722 -293 -1048 -545 -121
-94 -388 -355 -483 -471 -409 -506 -641 -1071 -706 -1722 -11 -103 -10 -468 0
-563 12 -108 20 -171 25 -205 3 -16 7 -43 10 -60 2 -16 9 -52 14 -80 6 -27 12
-60 14 -71 8 -41 67 -249 88 -309 77 -222 197 -477 309 -655 427 -678 1066
-1159 1824 -1373 185 -53 350 -83 572 -107 127 -13 563 -4 693 14 383 55 696
153 1025 321 300 153 528 319 776 565 221 220 335 363 481 602 80 133 218 404
218 430 0 8 4 18 9 23 19 20 132 371 147 455 3 14 9 41 14 60 5 19 12 51 15
70 3 19 8 42 10 50 2 8 7 39 10 69 4 30 9 63 11 75 19 95 26 557 11 711 -47
475 -200 933 -447 1335 -218 356 -500 662 -840 912 -228 167 -574 347 -834
433 -194 64 -423 117 -606 140 -25 3 -61 8 -80 11 -37 6 -556 15 -562 9z"/>
</g>
</svg>
