<?xml version="1.0" encoding="UTF-8" standalone="no"?><!DOCTYPE svg PUBLIC "-//W3C//DTD SVG 1.1//EN" "http://www.w3.org/Graphics/SVG/1.1/DTD/svg11.dtd"><svg width="100%" height="100%" viewBox="0 0 120 120" version="1.1" xmlns="http://www.w3.org/2000/svg" xmlns:xlink="http://www.w3.org/1999/xlink" xml:space="preserve" xmlns:serif="http://www.serif.com/" style="fill-rule:evenodd;clip-rule:evenodd;stroke-linejoin:round;stroke-miterlimit:1.41421;"><rect id="アートボード1" x="0" y="0" width="120" height="120" style="fill:none;"/><clipPath id="_clip1"><rect id="アートボード11" serif:id="アートボード1" x="0" y="0" width="120" height="120"/></clipPath><g clip-path="url(#_clip1)"><g><path d="M98.612,41.222c-1.278,-0.438 -2.565,-0.844 -3.863,-1.217c0.215,-0.875 0.414,-1.753 0.597,-2.635c2.924,-14.195 1.012,-25.63 -5.517,-29.394c-6.26,-3.611 -16.498,0.154 -26.838,9.152c-1.019,0.889 -2.015,1.803 -2.988,2.742c-0.651,-0.624 -1.314,-1.237 -1.988,-1.837c-10.837,-9.621 -21.699,-13.676 -28.221,-9.9c-6.254,3.62 -8.107,14.371 -5.474,27.823c0.262,1.332 0.557,2.657 0.887,3.974c-1.537,0.437 -3.021,0.902 -4.442,1.397c-12.704,4.429 -20.818,11.372 -20.818,18.572c0,7.437 8.71,14.897 21.943,19.419c1.073,0.365 2.155,0.703 3.245,1.014c-0.354,1.419 -0.668,2.848 -0.943,4.285c-2.509,13.218 -0.549,23.714 5.688,27.312c6.443,3.715 17.255,-0.104 27.785,-9.307c0.832,-0.728 1.666,-1.497 2.504,-2.308c1.053,1.016 2.134,2.003 3.243,2.959c10.199,8.776 20.272,12.32 26.504,8.713c6.436,-3.727 8.528,-15.002 5.812,-28.72c-0.207,-1.048 -0.447,-2.117 -0.72,-3.208c0.76,-0.224 1.504,-0.456 2.232,-0.697c13.757,-4.557 22.707,-11.926 22.707,-19.462c0,-7.226 -8.375,-14.215 -21.335,-18.677Zm-32.256,-20.227c8.86,-7.71 17.14,-10.754 20.912,-8.578c4.019,2.318 5.582,11.663 3.057,23.919c-0.166,0.798 -0.346,1.593 -0.54,2.385c-5.286,-1.198 -10.646,-2.045 -16.045,-2.535c-3.092,-4.443 -6.481,-8.672 -10.143,-12.659c0.898,-0.867 1.818,-1.711 2.759,-2.532Zm-30.977,45.055c1.085,2.096 2.219,4.166 3.402,6.209c1.207,2.084 2.463,4.138 3.768,6.163c-3.715,-0.403 -7.406,-0.997 -11.06,-1.778c1.06,-3.422 2.365,-6.978 3.89,-10.594Zm-0.006,-12.057c-1.493,-3.54 -2.77,-7.022 -3.813,-10.383c3.424,-0.767 7.075,-1.393 10.879,-1.868c-1.273,1.986 -2.499,4.001 -3.679,6.046c-1.177,2.041 -2.306,4.11 -3.387,6.205Zm2.725,6.029c1.58,-3.287 3.281,-6.512 5.104,-9.674l0,0.001c1.822,-3.16 3.761,-6.248 5.819,-9.263c3.569,-0.27 7.228,-0.411 10.927,-0.411c3.715,0 7.379,0.142 10.947,0.414c2.035,3.008 3.962,6.086 5.782,9.232c1.828,3.152 3.552,6.362 5.173,9.628c-1.603,3.298 -3.322,6.536 -5.156,9.714l-0.001,0c-1.818,3.157 -3.737,6.254 -5.757,9.288c-3.56,0.255 -7.239,0.386 -10.989,0.386c-3.734,0 -7.366,-0.117 -10.865,-0.343c-2.071,-3.026 -4.026,-6.127 -5.864,-9.303c-1.829,-3.157 -3.535,-6.38 -5.12,-9.669l0,0Zm43.036,12.202c1.207,-2.094 2.367,-4.213 3.48,-6.358c1.525,3.446 2.87,6.97 4.03,10.556c-3.696,0.83 -7.432,1.467 -11.194,1.908c1.268,-2.011 2.496,-4.046 3.684,-6.106l0,0Zm3.431,-18.227c-1.109,-2.104 -2.259,-4.186 -3.452,-6.244c-1.173,-2.027 -2.389,-4.027 -3.649,-6.002c3.829,0.484 7.498,1.126 10.942,1.913c-1.106,3.507 -2.388,6.955 -3.841,10.333l0,0Zm-24.56,-26.804c2.496,2.72 4.852,5.566 7.061,8.524c-4.725,-0.223 -9.452,-0.224 -14.183,-0.003c2.332,-3.074 4.72,-5.93 7.122,-8.521Zm-27.643,-14.624c4.015,-2.324 12.892,0.99 22.248,9.298c0.598,0.531 1.199,1.087 1.801,1.662c-3.683,3.986 -7.098,8.212 -10.222,12.65c-5.386,0.483 -10.735,1.315 -16.013,2.489c-0.306,-1.225 -0.581,-2.458 -0.825,-3.697l0,0c-2.256,-11.526 -0.758,-20.22 3.011,-22.402Zm-5.851,62.826c-0.995,-0.285 -1.983,-0.594 -2.963,-0.928c-5.081,-1.599 -9.826,-4.119 -13.996,-7.435c-2.413,-1.656 -4.036,-4.24 -4.479,-7.133c0,-4.369 6.515,-9.943 17.38,-13.731c1.364,-0.474 2.741,-0.907 4.131,-1.3c1.613,5.176 3.567,10.238 5.848,15.156c-2.31,4.987 -4.288,10.122 -5.921,15.371Zm27.78,23.367c-3.924,3.603 -8.477,6.454 -13.433,8.409l0,0c-2.64,1.264 -5.689,1.378 -8.416,0.317c-3.786,-2.183 -5.359,-10.611 -3.213,-21.915c0.255,-1.336 0.548,-2.664 0.877,-3.984c5.331,1.145 10.734,1.927 16.171,2.341c3.151,4.463 6.592,8.714 10.301,12.726c-0.745,0.721 -1.507,1.422 -2.287,2.106Zm5.855,-5.794c-2.429,-2.622 -4.853,-5.522 -7.22,-8.641c2.298,0.09 4.638,0.136 7.021,0.136c2.446,0 4.861,-0.054 7.244,-0.161c-2.199,3.007 -4.55,5.899 -7.045,8.665l0,0.001Zm31.13,7.132c-0.224,2.918 -1.647,5.616 -3.929,7.449c-3.782,2.189 -11.869,-0.656 -20.591,-8.162c-1,-0.86 -2.006,-1.777 -3.017,-2.75c3.636,-4.027 6.997,-8.294 10.058,-12.773c5.469,-0.461 10.899,-1.298 16.253,-2.505c0.244,0.988 0.461,1.956 0.649,2.903c1.163,5.199 1.358,10.568 0.577,15.838l0,0Zm4.352,-25.604l0,0c-0.656,0.217 -1.33,0.427 -2.016,0.63c-1.678,-5.199 -3.708,-10.278 -6.076,-15.202c2.278,-4.857 4.229,-9.862 5.84,-14.98c1.227,0.355 2.419,0.73 3.567,1.125c11.105,3.823 17.878,9.475 17.878,13.83c0,4.639 -7.315,10.661 -19.193,14.597l0,0Z" style="fill:#61dafb;fill-rule:nonzero;"/></g><path d="M59.947,51.798c0,0 0,0 0,0c5.879,0 10.716,4.837 10.716,10.716c0,5.878 -4.837,10.715 -10.716,10.715c-5.878,0 -10.715,-4.837 -10.715,-10.715c0,0 0,-0.001 0,-0.001c0,-5.878 4.837,-10.715 10.715,-10.715" style="fill:#61dafb;fill-rule:nonzero;"/></g></svg>